# xmcd
# Track frame offsets:
# 150
# 16880
# 29482
# 51296
# 62938
# 75409
# 89972
# 105687
# 120401
# 137546
# 163175
# 185469
# 208623
# 231901
# 249983
# 272117
# 289490
# 310285
# 331827
#
# Disc length: 4658 seconds
# Revision: 0
# Processed by: cddbd v1.5.2PL0 Copyright (c) Steve Scherf et al.
# Submitted via: VisiTrax 2.10.3.257 - For more info visit www.synapsa.com
#
DISCID=16123013
DTITLE=Emmylou Harris - Songbird - Rare Tracks And Forgotten Gems - Disc 2
DYEAR=2007
DGENRE=Country
TTITLE0=The Sweetheart Of The Rodeo (with Dolly Parton, Linda Ronstadt, Vinc
TTITLE0=e Gill and Gail Davies)
TTITLE1=When I Was Yours
TTITLE2=My Father's House
TTITLE3=Bright Morning Stars
TTITLE4=When He Calls
TTITLE5=Lonely Street
TTITLE6=Brand new Dance
TTITLE7=Get Up John
TTITLE8=If I Could Be There
TTITLE9=Ballad Of A Runaway Horse
TTITLE10=Going Back To Harlan
TTITLE11=Sweet Old World
TTITLE12=All My Tears (Live)
TTITLE13=Prayer In Open D (Live)
TTITLE14=Bang The Drum Slowly
TTITLE15=Boy From Tupelo
TTITLE16=Lost Unto This World
TTITLE17=Man Is An Island
TTITLE18=Cup Of Kindness
EXTD=
EXTT0=
EXTT1=
EXTT2=
EXTT3=
EXTT4=
EXTT5=
EXTT6=
EXTT7=
EXTT8=
EXTT9=
EXTT10=
EXTT11=
EXTT12=
EXTT13=
EXTT14=
EXTT15=
EXTT16=
EXTT17=
EXTT18=
PLAYORDER=
